<?xml version="1.0" standalone="no"?>
<!DOCTYPE svg PUBLIC "-//W3C//DTD SVG 20010904//EN"
 "http://www.w3.org/TR/2001/REC-SVG-20010904/DTD/svg10.dtd">
<svg version="1.0" xmlns="http://www.w3.org/2000/svg"
 width="400.000000pt" height="400.000000pt" viewBox="0 0 400.000000 400.000000"
 preserveAspectRatio="xMidYMid meet">
<metadata>
Created by potrace 1.11, written by Peter Selinger 2001-2013
</metadata>
<g transform="translate(0.000000,400.000000) scale(0.100000,-0.100000)"
fill="#000000" stroke="none">
<path d="M1589 3476 c-41 -28 -69 -86 -69 -144 0 -20 16 -192 35 -381 37 -367
40 -382 98 -425 28 -20 39 -21 347 -21 308 0 319 1 347 21 58 43 61 58 98 425
19 189 35 362 35 384 -1 57 -31 118 -72 143 -35 22 -44 22 -409 22 l-374 0
-36 -24z"/>
<path d="M1917 2256 c-59 -22 -105 -57 -138 -105 -92 -139 -46 -314 105 -394
58 -31 174 -31 232 0 53 28 99 74 127 127 31 58 31 174 0 232 -28 53 -75 99
-126 126 -52 26 -149 33 -200 14z"/>
<path d="M1160 2016 c-52 -24 -131 -60 -175 -81 -44 -20 -141 -64 -215 -97
-183 -81 -208 -96 -236 -144 -45 -77 -42 -86 152 -423 97 -169 189 -319 205
-336 26 -27 36 -30 92 -30 71 0 73 1 287 155 163 117 169 122 272 194 140 99
168 133 168 203 0 31 -28 87 -148 295 -85 149 -159 266 -176 279 -51 40 -115
36 -226 -15z"/>
<path d="M2614 2041 c-41 -25 -47 -34 -205 -310 -120 -210 -134 -239 -133
-280 0 -25 6 -56 13 -69 10 -19 105 -96 188 -152 12 -8 81 -58 153 -110 73
-52 142 -102 154 -110 12 -8 37 -27 56 -41 67 -51 120 -72 171 -67 26 3 58 12
71 20 29 19 384 632 393 678 8 48 -28 117 -80 151 -22 14 -183 90 -357 167
-337 151 -365 159 -424 123z"/>
</g>
</svg>
