<?xml version="1.0" standalone="no"?>
<!DOCTYPE svg PUBLIC "-//W3C//DTD SVG 20010904//EN"
 "http://www.w3.org/TR/2001/REC-SVG-20010904/DTD/svg10.dtd">
<svg version="1.0" xmlns="http://www.w3.org/2000/svg"
 width="400.000000pt" height="400.000000pt" viewBox="0 0 400.000000 400.000000"
 preserveAspectRatio="xMidYMid meet">
<metadata>
Created by potrace 1.11, written by Peter Selinger 2001-2013
</metadata>
<g transform="translate(0.000000,400.000000) scale(0.100000,-0.100000)"
fill="#000000" stroke="none">
<path d="M1848 3995 c-1 -1 -35 -5 -73 -9 -358 -33 -769 -209 -1060 -456 -395
-334 -637 -784 -702 -1305 -15 -116 -7 -466 12 -535 2 -8 6 -33 10 -55 37
-252 186 -595 358 -825 189 -253 429 -455 708 -594 93 -47 273 -121 319 -131
8 -2 50 -13 94 -24 43 -11 99 -24 125 -27 25 -3 48 -7 51 -9 37 -22 475 -26
590 -6 41 7 84 15 95 17 161 29 460 132 538 186 15 11 27 17 27 14 0 -7 180
105 245 152 292 212 548 547 680 892 33 84 79 236 89 295 3 17 8 41 11 55 23
118 30 199 29 375 0 151 -7 261 -19 305 -2 8 -6 31 -9 50 -29 195 -134 477
-248 660 -15 25 -35 58 -44 74 -50 89 -228 296 -340 394 -73 64 -196 159 -262
201 -115 74 -411 210 -492 226 -8 2 -40 10 -70 19 -48 13 -96 23 -260 51 -37
7 -396 16 -402 10z"/>
</g>
</svg>
